<?xml version="1.0" standalone="no"?>
<!DOCTYPE svg PUBLIC "-//W3C//DTD SVG 20010904//EN"
 "http://www.w3.org/TR/2001/REC-SVG-20010904/DTD/svg10.dtd">
<svg version="1.0" xmlns="http://www.w3.org/2000/svg"
 width="1024.000000pt" height="583.000000pt" viewBox="0 0 1024.000000 583.000000"
 preserveAspectRatio="xMidYMid meet">

<g transform="translate(0.000000,583.000000) scale(0.100000,-0.100000)"
fill="#002d74" stroke="none">
<path fill="#1a4678" d="M2580 3010 c8 -5 96 -56 195 -112 l180 -104 3 -257 c1 -141 5 -257 9
-257 3 0 35 17 70 37 l63 37 0 256 0 255 -139 78 -138 77 -129 0 c-84 -1 -124
-4 -114 -10z"/>
<path fill="#5181b8" d="M2344 2933 c-128 -74 -133 -78 -169 -142 -21 -36 -49 -86 -63 -110
-15 -25 -22 -42 -17 -39 6 3 97 56 203 117 l194 112 96 -57 c239 -141 332
-194 337 -194 3 0 5 32 3 71 l-3 72 -210 123 c-115 68 -217 123 -225 123 -8 0
-74 -34 -146 -76z"/>
<path d="M5320 2763 c0 -54 3 -128 7 -165 l6 -68 48 0 49 0 0 143 c0 78 3 152
6 165 6 21 4 22 -55 22 l-61 0 0 -97z"/>
<path d="M5544 2799 c3 -34 6 -109 6 -165 l0 -104 49 0 48 0 6 83 c4 45 7 119
7 165 l0 82 -61 0 -62 0 7 -61z"/>
<path d="M7344 2823 c3 -21 6 -95 6 -165 l0 -128 49 0 48 0 7 53 c3 28 6 103
6 165 l0 112 -61 0 -62 0 7 -37z"/>
<path d="M7573 2738 c4 -66 7 -141 7 -165 l0 -43 50 0 50 0 0 73 c0 41 3 115
6 165 l7 92 -63 0 -63 0 6 -122z"/>
<path fill="#1a4678" d="M2280 2691 l-215 -127 -3 -165 -2 -166 65 -114 65 -114 0 240 0 240
148 86 c81 48 177 104 215 125 37 21 66 42 64 47 -1 5 -30 24 -62 42 l-60 32
-215 -126z"/>
<path d="M3710 2365 l0 -415 155 0 155 0 0 50 0 50 -95 0 -96 0 3 143 3 142
68 3 67 3 0 44 0 44 -67 3 -68 3 -3 122 -3 122 93 3 93 3 3 48 3 47 -155 0
-156 0 0 -415z"/>
<path d="M4060 2730 l0 -50 65 0 65 0 0 -365 0 -365 65 0 65 0 0 365 0 365 65
0 65 0 0 50 0 50 -195 0 -195 0 0 -50z"/>
<path d="M4530 2498 c1 -309 9 -407 39 -467 52 -100 214 -120 297 -37 58 58
64 100 64 463 l0 323 -59 0 -60 0 -3 -343 c-3 -308 -5 -346 -21 -370 -13 -20
-26 -27 -50 -27 -75 1 -77 12 -77 406 l0 334 -65 0 -65 0 0 -282z"/>
<path d="M5840 2365 l0 -415 145 0 145 0 0 50 0 50 -85 0 -85 0 0 365 0 365
-60 0 -60 0 0 -415z"/>
<path d="M6220 2365 l0 -415 155 0 155 0 0 50 0 50 -95 0 -96 0 3 143 3 142
68 3 67 3 0 44 0 45 -70 0 -70 0 0 125 0 125 90 0 90 0 0 50 0 50 -150 0 -150
0 0 -415z"/>
<path d="M6562 2733 l3 -48 68 -3 67 -3 0 -364 0 -365 60 0 60 0 0 365 0 364
68 3 67 3 3 48 3 47 -201 0 -201 0 3 -47z"/>
<path d="M7040 2365 l0 -415 65 0 65 0 0 415 0 415 -65 0 -65 0 0 -415z"/>
<path fill="#5181b8" d="M3140 2543 l0 -231 -157 -95 c-87 -52 -186 -109 -219 -128 l-62 -33
61 -37 c53 -32 65 -35 83 -26 12 7 109 64 217 127 l197 115 0 167 0 166 -56
99 c-31 54 -58 100 -60 102 -2 2 -4 -100 -4 -226z"/>
<path fill="#5181b8" d="M2293 2504 l-63 -35 0 -257 1 -257 139 -78 140 -78 122 3 123 3 -197
110 -197 110 -3 257 -3 257 -62 -35z"/>
<path fill="#1a4678" d="M2400 2116 l0 -74 203 -118 c111 -64 209 -122 218 -127 12 -7 49 10
155 71 l139 81 62 107 c34 60 61 109 59 111 -2 2 -92 -48 -200 -112 l-197
-115 -216 125 c-119 69 -217 125 -219 125 -2 0 -4 -33 -4 -74z"/>
</g>
</svg>
